<mxfile host="65bd71144e">
    <diagram id="E8amOSuIZdUV3I6zazIH" name="Page-1">
        <mxGraphModel dx="3400" dy="3320" grid="1" gridSize="10" guides="1" tooltips="1" connect="1" arrows="1" fold="1" page="1" pageScale="1" pageWidth="850" pageHeight="1100" math="0" shadow="0">
            <root>
                <mxCell id="0"/>
                <mxCell id="1" parent="0"/>
                <mxCell id="2" value="Devices" style="rounded=0;whiteSpace=wrap;html=1;fillColor=#032A04;" parent="1" vertex="1">
                    <mxGeometry x="230" y="350" width="120" height="60" as="geometry"/>
                </mxCell>
                <mxCell id="3" value="Instance" style="rounded=0;whiteSpace=wrap;html=1;fillColor=#032A04;" parent="1" vertex="1">
                    <mxGeometry x="220" y="180" width="120" height="60" as="geometry"/>
                </mxCell>
                <mxCell id="4" value="Window" style="rounded=0;whiteSpace=wrap;html=1;fillColor=#E0C304;" parent="1" vertex="1">
                    <mxGeometry x="20" y="100" width="120" height="60" as="geometry"/>
                </mxCell>
                <mxCell id="5" value="SwapChain" style="rounded=0;whiteSpace=wrap;html=1;fillColor=#032A04;" parent="1" vertex="1">
                    <mxGeometry x="230" y="530" width="120" height="60" as="geometry"/>
                </mxCell>
                <mxCell id="6" value="Main images" style="rounded=0;whiteSpace=wrap;html=1;fillColor=#C26A1D;" parent="1" vertex="1">
                    <mxGeometry x="430" y="640" width="120" height="60" as="geometry"/>
                </mxCell>
                <mxCell id="7" value="renderpass" style="rounded=0;whiteSpace=wrap;html=1;fillColor=#C26A1D;" parent="1" vertex="1">
                    <mxGeometry x="430" y="820" width="120" height="60" as="geometry"/>
                </mxCell>
                <mxCell id="8" value="Descriptor sets" style="rounded=0;whiteSpace=wrap;html=1;fillColor=#103BC9;" parent="1" vertex="1">
                    <mxGeometry x="630" y="1000" width="120" height="60" as="geometry"/>
                </mxCell>
                <mxCell id="9" value="pipeline" style="rounded=0;whiteSpace=wrap;html=1;fillColor=#103BC9;" parent="1" vertex="1">
                    <mxGeometry x="630" y="1100" width="120" height="60" as="geometry"/>
                </mxCell>
                <mxCell id="10" value="frame buffers" style="rounded=0;whiteSpace=wrap;html=1;fillColor=#C26A1D;" parent="1" vertex="1">
                    <mxGeometry x="430" y="910" width="120" height="60" as="geometry"/>
                </mxCell>
                <mxCell id="11" value="depth" style="rounded=0;whiteSpace=wrap;html=1;fillColor=#C26A1D;" parent="1" vertex="1">
                    <mxGeometry x="430" y="730" width="120" height="60" as="geometry"/>
                </mxCell>
                <mxCell id="12" value="CommandPool" style="rounded=0;whiteSpace=wrap;html=1;fillColor=#032A04;" parent="1" vertex="1">
                    <mxGeometry x="230" y="440" width="120" height="60" as="geometry"/>
                </mxCell>
                <mxCell id="13" value="texture / Color" style="rounded=0;whiteSpace=wrap;html=1;fillColor=#103BC9;" parent="1" vertex="1">
                    <mxGeometry x="630" y="1200" width="120" height="60" as="geometry"/>
                </mxCell>
                <mxCell id="14" value="model / vertices" style="rounded=0;whiteSpace=wrap;html=1;fillColor=#103BC9;" parent="1" vertex="1">
                    <mxGeometry x="630" y="1300" width="120" height="60" as="geometry"/>
                </mxCell>
                <mxCell id="15" value="Buffers" style="rounded=0;whiteSpace=wrap;html=1;fillColor=#103BC9;" parent="1" vertex="1">
                    <mxGeometry x="630" y="1400" width="120" height="60" as="geometry"/>
                </mxCell>
                <mxCell id="16" value="command Buffers" style="rounded=0;whiteSpace=wrap;html=1;fillColor=#C26A1D;" parent="1" vertex="1">
                    <mxGeometry x="435" y="1480" width="120" height="60" as="geometry"/>
                </mxCell>
                <mxCell id="17" value="Secondary Command Buffers / Binding" style="rounded=0;whiteSpace=wrap;html=1;fillColor=#103BC9;" parent="1" vertex="1">
                    <mxGeometry x="630" y="1680" width="120" height="60" as="geometry"/>
                </mxCell>
                <mxCell id="19" value="endRenderPass" style="rounded=0;whiteSpace=wrap;html=1;fillColor=#C26A1D;" parent="1" vertex="1">
                    <mxGeometry x="435" y="1760" width="120" height="60" as="geometry"/>
                </mxCell>
                <mxCell id="20" value="Begin RenderPass" style="rounded=0;whiteSpace=wrap;html=1;fillColor=#C26A1D;" parent="1" vertex="1">
                    <mxGeometry x="435" y="1580" width="120" height="60" as="geometry"/>
                </mxCell>
                <mxCell id="21" value="frame buffer for camera- need use in render pass" style="shape=note;whiteSpace=wrap;html=1;backgroundOutline=1;darkOpacity=0.05;" parent="1" vertex="1">
                    <mxGeometry x="590" y="820" width="100" height="150" as="geometry"/>
                </mxCell>
                <mxCell id="31" value="update UBOs" style="rounded=0;whiteSpace=wrap;html=1;fillColor=#103BC9;" parent="1" vertex="1">
                    <mxGeometry x="630" y="1970" width="120" height="60" as="geometry"/>
                </mxCell>
                <mxCell id="32" value="draw" style="rounded=0;whiteSpace=wrap;html=1;fillColor=#C26A1D;" parent="1" vertex="1">
                    <mxGeometry x="435" y="1880" width="120" height="60" as="geometry"/>
                </mxCell>
                <mxCell id="33" value="Present" style="rounded=0;whiteSpace=wrap;html=1;fillColor=#032A04;" parent="1" vertex="1">
                    <mxGeometry x="270" y="2060" width="120" height="60" as="geometry"/>
                </mxCell>
                <mxCell id="34" value="Surface" style="rounded=0;whiteSpace=wrap;html=1;fillColor=#032A04;" parent="1" vertex="1">
                    <mxGeometry x="220" y="270" width="120" height="60" as="geometry"/>
                </mxCell>
                <mxCell id="35" value="DESTROY" style="rounded=0;whiteSpace=wrap;html=1;fillColor=#CC0E00;" vertex="1" parent="1">
                    <mxGeometry x="10" y="2160" width="740" height="140" as="geometry"/>
                </mxCell>
            </root>
        </mxGraphModel>
    </diagram>
</mxfile>